<svg width="20" height="20" viewBox="0 0 20 20" fill="none" xmlns="http://www.w3.org/2000/svg">
<path d="M5.51317 17.5C5.13984 17.5 4.82206 17.3689 4.55984 17.1067C4.29762 16.8444 4.1665 16.5269 4.1665 16.1542V8.84583C4.1665 8.47361 4.29762 8.15611 4.55984 7.89333C4.82206 7.63111 5.13984 7.5 5.51317 7.5H6.6665V5.83333C6.6665 4.905 6.99012 4.1175 7.63734 3.47083C8.284 2.82361 9.0715 2.5 9.99984 2.5C10.9282 2.5 11.7159 2.82361 12.3632 3.47083C13.0104 4.11806 13.3337 4.90556 13.3332 5.83333V7.5H14.4873C14.8596 7.5 15.1771 7.63111 15.4398 7.89333C15.7021 8.15556 15.8332 8.47333 15.8332 8.84667V16.1542C15.8332 16.5264 15.7021 16.8439 15.4398 17.1067C15.1776 17.3689 14.8601 17.5 14.4873 17.5H5.51317ZM5.51317 16.6667H14.4873C14.6368 16.6667 14.7596 16.6186 14.8557 16.5225C14.9518 16.4264 14.9998 16.3036 14.9998 16.1542V8.84583C14.9998 8.69639 14.9518 8.57361 14.8557 8.4775C14.7596 8.38139 14.6368 8.33333 14.4873 8.33333H5.51234C5.36289 8.33333 5.24011 8.38139 5.144 8.4775C5.04789 8.57361 4.99984 8.69667 4.99984 8.84667V16.1542C4.99984 16.3036 5.04789 16.4264 5.144 16.5225C5.24011 16.6186 5.36317 16.6667 5.51317 16.6667ZM9.99984 13.75C10.3515 13.75 10.6476 13.6294 10.8882 13.3883C11.1293 13.1478 11.2498 12.8517 11.2498 12.5C11.2498 12.1483 11.1293 11.8522 10.8882 11.6117C10.6471 11.3711 10.3509 11.2506 9.99984 11.25C9.64873 11.2494 9.35262 11.37 9.1115 11.6117C8.87039 11.8522 8.74984 12.1483 8.74984 12.5C8.74984 12.8517 8.87039 13.1478 9.1115 13.3883C9.35206 13.6294 9.64817 13.75 9.99984 13.75ZM7.49984 7.5H12.4998V5.83333C12.4998 5.13889 12.2568 4.54861 11.7707 4.0625C11.2846 3.57639 10.6943 3.33333 9.99984 3.33333C9.30539 3.33333 8.71512 3.57639 8.229 4.0625C7.74289 4.54861 7.49984 5.13889 7.49984 5.83333V7.5Z" fill="black"/>
</svg>
