<svg width="24" height="24" viewBox="0 0 24 24" fill="none" xmlns="http://www.w3.org/2000/svg">
<path fill-rule="evenodd" clip-rule="evenodd" d="M2.07 5.258C2 5.626 2 6.068 2 6.95V14C2 17.771 2 19.657 3.172 20.828C4.344 21.999 6.229 22 10 22H14C17.771 22 19.657 22 20.828 20.828C21.999 19.656 22 17.771 22 14V11.798C22 9.166 22 7.849 21.23 6.994C21.1594 6.9151 21.0846 6.83999 21.006 6.769C20.151 6 18.834 6 16.202 6H15.828C14.675 6 14.098 6 13.56 5.847C13.2648 5.7626 12.9802 5.64449 12.712 5.495C12.224 5.224 11.816 4.815 11 4L10.45 3.45C10.176 3.176 10.04 3.04 9.896 2.92C9.27667 2.40664 8.51694 2.09194 7.716 2.017C7.53 2 7.336 2 6.95 2C6.067 2 5.626 2 5.258 2.07C4.46784 2.21922 3.741 2.60314 3.17231 3.17165C2.60361 3.74017 2.21947 4.46789 2.07 5.258ZM12.25 10C12.25 9.80109 12.329 9.61032 12.4697 9.46967C12.6103 9.32902 12.8011 9.25 13 9.25H18C18.1989 9.25 18.3897 9.32902 18.5303 9.46967C18.671 9.61032 18.75 9.80109 18.75 10C18.75 10.1989 18.671 10.3897 18.5303 10.5303C18.3897 10.671 18.1989 10.75 18 10.75H13C12.8011 10.75 12.6103 10.671 12.4697 10.5303C12.329 10.3897 12.25 10.1989 12.25 10Z" fill="#7C0085"/>
<path d="M11.45 10C11.45 9.145 12.145 8.45 13 8.45H15V7.5H13C12.337 7.5 11.7011 7.76339 11.2322 8.23223C10.7634 8.70107 10.5 9.33696 10.5 10C10.5 10.663 10.7634 11.2989 11.2322 11.7678C11.7011 12.2366 12.337 12.5 13 12.5H15V11.55H13C12.145 11.55 11.45 10.855 11.45 10ZM13.5 10.5H17.5V9.5H13.5V10.5ZM18 7.5H16V8.45H18C18.855 8.45 19.55 9.145 19.55 10C19.55 10.855 18.855 11.55 18 11.55H16V12.5H18C18.663 12.5 19.2989 12.2366 19.7678 11.7678C20.2366 11.2989 20.5 10.663 20.5 10C20.5 9.33696 20.2366 8.70107 19.7678 8.23223C19.2989 7.76339 18.663 7.5 18 7.5Z" fill="white"/>
</svg>
