<svg width="20" height="20" viewBox="0 0 20 20" fill="none" xmlns="http://www.w3.org/2000/svg">
<path d="M9.99984 9.48747C9.31262 9.48747 8.724 9.24247 8.234 8.75247C7.744 8.26247 7.49928 7.67414 7.49984 6.98747C7.50039 6.3008 7.74511 5.71192 8.234 5.2208C8.72289 4.72969 9.3115 4.48553 9.99984 4.4883C10.6882 4.49108 11.2768 4.73553 11.7657 5.22164C12.2546 5.70775 12.4993 6.29664 12.4998 6.9883C12.5004 7.67997 12.2557 8.2683 11.7657 8.7533C11.2757 9.2383 10.6871 9.48247 9.99984 9.48747ZM4.1665 15.5133V14.1416C4.1665 13.7977 4.2665 13.4761 4.4665 13.1766C4.66706 12.8766 4.9365 12.6439 5.27484 12.4783C6.0615 12.1011 6.84873 11.8183 7.6365 11.63C8.42373 11.4411 9.2115 11.3466 9.99984 11.3466C10.7882 11.3466 11.5762 11.4411 12.364 11.63C13.1518 11.8189 13.9384 12.1016 14.724 12.4783C15.0629 12.6439 15.3323 12.8766 15.5323 13.1766C15.7329 13.4761 15.8332 13.7977 15.8332 14.1416V15.5133H4.1665ZM4.99984 14.68H14.9998V14.1416C14.9998 13.9572 14.9401 13.7836 14.8207 13.6208C14.7018 13.4586 14.5371 13.3214 14.3265 13.2091C13.6409 12.8769 12.9337 12.6225 12.2048 12.4458C11.4759 12.2691 10.7409 12.1805 9.99984 12.18C9.25873 12.1794 8.52373 12.2677 7.79484 12.445C7.06595 12.6222 6.35873 12.8766 5.67317 13.2083C5.46206 13.3205 5.29734 13.4577 5.179 13.62C5.05956 13.7827 4.99984 13.9566 4.99984 14.1416V14.68ZM9.99984 8.65497C10.4582 8.65497 10.8507 8.49164 11.1773 8.16497C11.504 7.8383 11.6671 7.44553 11.6665 6.98664C11.6659 6.52775 11.5029 6.13553 11.1773 5.80997C10.8518 5.48442 10.4593 5.32108 9.99984 5.31997C9.54039 5.31886 9.14817 5.48219 8.82317 5.80997C8.49817 6.13775 8.33484 6.52997 8.33317 6.98664C8.3315 7.4433 8.49484 7.8358 8.82317 8.16414C9.1515 8.49247 9.54373 8.65553 9.99984 8.6533" fill="black"/>
</svg>
