<svg width="24" height="25" viewBox="0 0 24 25" fill="none" xmlns="http://www.w3.org/2000/svg">
<path d="M12 2.74231C10.6868 2.74231 9.38642 3.00097 8.17317 3.50351C6.95991 4.00606 5.85752 4.74266 4.92893 5.67124C3.05357 7.54661 2 10.0901 2 12.7423C2 17.1623 4.87 20.9123 8.84 22.2423C9.34 22.3223 9.5 22.0123 9.5 21.7423V20.0523C6.73 20.6523 6.14 18.7123 6.14 18.7123C5.68 17.5523 5.03 17.2423 5.03 17.2423C4.12 16.6223 5.1 16.6423 5.1 16.6423C6.1 16.7123 6.63 17.6723 6.63 17.6723C7.5 19.1923 8.97 18.7423 9.54 18.5023C9.63 17.8523 9.89 17.4123 10.17 17.1623C7.95 16.9123 5.62 16.0523 5.62 12.2423C5.62 11.1323 6 10.2423 6.65 9.53231C6.55 9.28231 6.2 8.24231 6.75 6.89231C6.75 6.89231 7.59 6.62231 9.5 7.91231C10.29 7.69231 11.15 7.58231 12 7.58231C12.85 7.58231 13.71 7.69231 14.5 7.91231C16.41 6.62231 17.25 6.89231 17.25 6.89231C17.8 8.24231 17.45 9.28231 17.35 9.53231C18 10.2423 18.38 11.1323 18.38 12.2423C18.38 16.0623 16.04 16.9023 13.81 17.1523C14.17 17.4623 14.5 18.0723 14.5 19.0023V21.7423C14.5 22.0123 14.66 22.3323 15.17 22.2423C19.14 20.9023 22 17.1623 22 12.7423C22 11.4291 21.7413 10.1287 21.2388 8.91547C20.7362 7.70222 19.9997 6.59983 19.0711 5.67124C18.1425 4.74266 17.0401 4.00606 15.8268 3.50351C14.6136 3.00097 13.3132 2.74231 12 2.74231Z" fill="#272727"/>
</svg>
