<svg width="17" height="17" viewBox="0 0 17 17" fill="none" xmlns="http://www.w3.org/2000/svg">
<g clip-path="url(#clip0_218_525)">
<path d="M6.07386 1.02637C4.47522 1.58096 3.09654 2.63358 2.14035 4.02962C1.18416 5.42567 0.700854 7.09155 0.761418 8.78258C0.821982 10.4736 1.42323 12.1006 2.47684 13.4247C3.53045 14.7488 4.98089 15.7001 6.61511 16.1389C7.94002 16.4807 9.32813 16.4958 10.6601 16.1826C11.8668 15.9116 12.9823 15.3318 13.8976 14.5001C14.8502 13.6081 15.5417 12.4732 15.8976 11.2176C16.2845 9.85221 16.3534 8.41629 16.0989 7.02012H8.65886V10.1064H12.9676C12.8815 10.5986 12.697 11.0684 12.4251 11.4877C12.1531 11.9069 11.7994 12.267 11.3851 12.5464C10.859 12.8944 10.2659 13.1286 9.64387 13.2339C9.02005 13.3499 8.38019 13.3499 7.75636 13.2339C7.1241 13.1031 6.52599 12.8422 6.00011 12.4676C5.1553 11.8696 4.52096 11.02 4.18762 10.0401C3.84863 9.04186 3.84863 7.95963 4.18762 6.96137C4.4249 6.26164 4.81716 5.62454 5.33511 5.09762C5.92785 4.48355 6.67828 4.04462 7.50406 3.82896C8.32984 3.61331 9.19906 3.62928 10.0164 3.87512C10.6548 4.07111 11.2387 4.41354 11.7214 4.87512C12.2072 4.39179 12.6922 3.9072 13.1764 3.42137C13.4264 3.16012 13.6989 2.91137 13.9451 2.64387C13.2083 1.95822 12.3435 1.42469 11.4001 1.07387C9.68225 0.450107 7.80259 0.433344 6.07386 1.02637Z" fill="white"/>
<path d="M6.07397 1.02624C7.80254 0.432816 9.6822 0.449138 11.4002 1.07249C12.3437 1.4257 13.2082 1.96179 13.944 2.64999C13.694 2.91749 13.4302 3.16749 13.1752 3.42749C12.6902 3.91166 12.2056 4.39416 11.7215 4.87499C11.2388 4.41342 10.6549 4.07098 10.0165 3.87499C9.19943 3.6283 8.33024 3.6114 7.50424 3.82617C6.67824 4.04094 5.92735 4.47907 5.33396 5.09249C4.81601 5.61941 4.42375 6.25652 4.18646 6.95624L1.59521 4.94999C2.52273 3.1107 4.12865 1.70377 6.07397 1.02624Z" fill="#E33629"/>
<path d="M0.907438 6.93745C1.04671 6.24719 1.27794 5.57873 1.59494 4.94995L4.18619 6.9612C3.84721 7.95946 3.84721 9.04169 4.18619 10.04C3.32285 10.7066 2.4591 11.3766 1.59494 12.05C0.801376 10.4703 0.559354 8.67058 0.907438 6.93745Z" fill="#F8BD00"/>
<path d="M8.65876 7.0188H16.0988C16.3533 8.41496 16.2844 9.85088 15.8975 11.2163C15.5416 12.4719 14.8501 13.6067 13.8975 14.4988C13.0613 13.8463 12.2213 13.1988 11.385 12.5463C11.7996 12.2666 12.1535 11.9062 12.4254 11.4865C12.6973 11.0668 12.8817 10.5965 12.9675 10.1038H8.65876C8.65751 9.0763 8.65876 8.04755 8.65876 7.0188Z" fill="#587DBD"/>
<path d="M1.59375 12.05C2.45792 11.3834 3.32167 10.7134 4.185 10.04C4.51901 11.0203 5.15426 11.8699 6 12.4675C6.52751 12.8404 7.12691 13.0992 7.76 13.2275C8.38382 13.3435 9.02368 13.3435 9.6475 13.2275C10.2695 13.1223 10.8626 12.8881 11.3888 12.54C12.225 13.1925 13.065 13.84 13.9012 14.4925C12.9861 15.3247 11.8705 15.9049 10.6637 16.1763C9.33176 16.4894 7.94365 16.4744 6.61875 16.1325C5.57088 15.8528 4.59209 15.3595 3.74375 14.6838C2.84583 13.9709 2.11244 13.0725 1.59375 12.05Z" fill="#319F43"/>
</g>
<defs>
<clipPath id="clip0_218_525">
<rect width="16" height="16" fill="white" transform="translate(0.5 0.5)"/>
</clipPath>
</defs>
</svg>
