<svg width="16" height="17" viewBox="0 0 16 17" fill="none" xmlns="http://www.w3.org/2000/svg">
<path d="M6.82128 7.3207C7.42604 6.71599 8.24008 6.36686 9.09504 6.34551C9.94999 6.32417 10.7804 6.63225 11.4146 7.20604L11.5353 7.3207L13.4206 9.2067C14.0346 9.82182 14.3841 10.6524 14.3946 11.5215C14.4051 12.3906 14.0757 13.2293 13.4766 13.8591C12.8776 14.4888 12.0563 14.8596 11.1878 14.8926C10.3193 14.9255 9.47228 14.6179 8.82728 14.0354L8.70728 13.9207L7.29262 12.506C7.17305 12.3861 7.10363 12.2251 7.09846 12.0558C7.09329 11.8865 7.15276 11.7216 7.26478 11.5945C7.3768 11.4675 7.53298 11.3878 7.7016 11.3718C7.87021 11.3557 8.03862 11.4044 8.17262 11.508L8.23528 11.5634L9.64995 12.978C10.0167 13.3469 10.5127 13.5584 11.0327 13.5676C11.5527 13.5769 12.0559 13.3832 12.4355 13.0276C12.8151 12.672 13.0413 12.1825 13.066 11.663C13.0907 11.1435 12.9121 10.6347 12.5679 10.2447L12.4779 10.1494L10.5926 8.26404C10.4069 8.07828 10.1864 7.93093 9.94373 7.8304C9.70105 7.72987 9.44095 7.67813 9.17828 7.67813C8.91561 7.67813 8.65551 7.72987 8.41284 7.8304C8.17016 7.93093 7.94967 8.07828 7.76395 8.26404C7.63885 8.38904 7.46923 8.45923 7.29238 8.45917C7.11553 8.45911 6.94595 8.3888 6.82095 8.2637C6.69594 8.13861 6.62575 7.96898 6.62581 7.79213C6.62588 7.61529 6.69619 7.44571 6.82128 7.3207ZM2.57862 3.07804C3.18337 2.47332 3.99741 2.12419 4.85237 2.10285C5.70732 2.0815 6.53778 2.38959 7.17195 2.96337L7.29262 3.07804L8.70662 4.49337C8.82618 4.61334 8.8956 4.77433 8.90077 4.94363C8.90594 5.11292 8.84647 5.27784 8.73445 5.40489C8.62243 5.53193 8.46625 5.61157 8.29763 5.62764C8.12902 5.6437 7.96061 5.59498 7.82662 5.49137L7.76395 5.43604L6.34995 4.02204C5.9826 3.65708 5.48801 3.44882 4.97024 3.44109C4.45247 3.43335 3.95188 3.62674 3.57379 3.98056C3.1957 4.33438 2.96958 4.82106 2.943 5.33821C2.91642 5.85535 3.09146 6.36265 3.43128 6.75337L3.52128 6.84937L5.40728 8.73537C5.78234 9.11031 6.29095 9.32094 6.82128 9.32094C7.35161 9.32094 7.86023 9.11031 8.23528 8.73537C8.29718 8.67343 8.37067 8.62429 8.45156 8.59075C8.53245 8.55721 8.61915 8.53993 8.70671 8.5399C8.79428 8.53987 8.88099 8.55709 8.9619 8.59057C9.04282 8.62405 9.11634 8.67314 9.17828 8.73504C9.24022 8.79693 9.28936 8.87042 9.3229 8.95131C9.35644 9.0322 9.37372 9.1189 9.37375 9.20647C9.37378 9.29403 9.35656 9.38075 9.32308 9.46166C9.2896 9.54257 9.24051 9.6161 9.17862 9.67804C8.57386 10.2827 7.75982 10.6319 6.90486 10.6532C6.04991 10.6746 5.21946 10.3665 4.58528 9.7927L4.46395 9.67804L2.57862 7.79204C1.95371 7.16694 1.60266 6.31925 1.60266 5.43537C1.60266 4.55149 1.95371 3.70313 2.57862 3.07804Z" fill="#7C0085"/>
</svg>
